<?xml version="1.0" encoding="UTF-8" standalone="no"?>
<!DOCTYPE svg PUBLIC "-//W3C//DTD SVG 1.1//EN" "http://www.w3.org/Graphics/SVG/1.1/DTD/svg11.dtd">
<svg width="100%" height="100%" viewBox="0 0 2000 2000" version="1.1" xmlns="http://www.w3.org/2000/svg" xmlns:xlink="http://www.w3.org/1999/xlink" xml:space="preserve" xmlns:serif="http://www.serif.com/" style="fill-rule:evenodd;clip-rule:evenodd;stroke-linejoin:round;stroke-miterlimit:2;">
    <g transform="matrix(1.289451,0,0,1.289451,90.788698,-313.611815)">
        <clipPath id="_clip1">
            <path d="M634.933,839.188C583.382,839.188 552.834,882.895 552.834,975.823L552.834,1088.473C552.834,1296.591 555.113,1425.02 559.599,1473.76C564.154,1523.265 568.767,1557.729 573.323,1577.166C578.08,1597.463 584.612,1615.529 592.854,1631.389C602.182,1649.584 617.91,1668.694 640.238,1688.527L323.06,1688.527C340.078,1651.538 350.593,1619.402 354.781,1592.182C359.606,1560.817 363.227,1527.643 365.64,1492.659L365.641,1492.642C370.426,1422.074 372.826,1327.284 372.826,1208.274C372.826,1064.425 370.437,933.11 365.662,814.33L355.828,568.478C353.37,504.574 347.595,460.05 338.994,434.846C328.504,403.858 312.948,375.22 292.299,348.948L760.993,348.948C892.864,348.948 988.336,362.483 1047.27,390.492L1047.353,390.531C1105.754,417.821 1134.855,464.549 1134.855,530.591C1134.855,614.318 1098.72,683.509 1026.873,738.384L1026.806,738.436C939.373,806.051 808.633,839.188 634.933,839.188ZM868.003,699.29C888.174,679.119 903,657.623 912.605,634.89C922.376,611.767 927.132,590.242 927.132,570.376C927.132,550.9 924.424,531.584 918.996,512.428C913.234,492.092 901.959,474.078 885.012,458.487L884.855,458.345C849.59,426.859 789.418,410.048 703.774,410.048C650.245,410.048 615.591,417.974 599.271,431.03L599.098,431.17C569.331,455.761 552.834,503.463 552.834,575.293C552.834,621.065 555.094,656.342 559.488,681.132C562.81,699.872 567.617,713.198 573.153,721.364C587.118,741.963 603.44,754.912 621.595,760.847C638.056,766.229 663.197,769.147 697.069,769.147C730.978,769.147 762.983,762.474 793.089,749.164C823.134,735.88 848.078,719.215 868.003,699.29Z" clip-rule="nonzero"/>
        </clipPath>
        <g clip-path="url(#_clip1)">
            <g transform="matrix(0.775524,-0,-0,0.775524,-70.408802,243.213445)">
                <path d="M909.503,768.48C843.031,768.48 803.641,824.839 803.641,944.665L803.641,1089.92C803.641,1358.279 806.58,1523.881 812.364,1586.73C818.238,1650.564 824.186,1695.003 830.061,1720.067C836.194,1746.238 844.617,1769.534 855.245,1789.984C867.273,1813.445 887.554,1838.087 916.344,1863.661L507.358,1863.661C529.302,1815.966 542.861,1774.528 548.261,1739.428C554.483,1698.985 559.153,1656.209 562.264,1611.099L562.265,1611.077C568.434,1520.082 571.53,1397.856 571.53,1244.398C571.53,1058.912 568.45,889.588 562.292,736.427L549.612,419.412C546.442,337.011 538.996,279.6 527.905,247.101C514.379,207.143 494.319,170.216 467.694,136.339L1072.051,136.339C1242.094,136.339 1365.199,153.793 1441.192,189.908L1441.299,189.959C1516.604,225.148 1554.128,285.401 1554.128,370.559C1554.128,478.521 1507.534,567.74 1414.891,638.498L1414.805,638.565C1302.064,725.751 1133.482,768.48 909.503,768.48ZM1210.036,588.088C1236.046,562.079 1255.163,534.361 1267.548,505.048C1280.147,475.232 1286.279,447.477 1286.279,421.86C1286.279,396.747 1282.788,371.84 1275.789,347.139C1268.36,320.916 1253.82,297.689 1231.968,277.585L1231.766,277.402C1186.294,236.802 1108.704,215.125 998.271,215.125C929.247,215.125 884.563,225.345 863.519,242.18L863.297,242.361C824.913,274.069 803.641,335.579 803.641,428.2C803.641,487.221 806.555,532.709 812.221,564.674C816.504,588.838 822.703,606.022 829.841,616.551C847.849,643.113 868.895,659.81 892.305,667.463C913.53,674.402 945.949,678.166 989.625,678.166C1033.349,678.166 1074.617,669.561 1113.438,652.398C1152.18,635.27 1184.344,613.78 1210.036,588.088Z" style="fill:rgb(92,0,255);"/>
            </g>
        </g>
    </g>
    <g transform="matrix(2.065047,2.153559,-0.537602,0.224909,101.269739,-681.872422)">
        <path d="M540.774,1196.657L389.99,1196.657L389.99,837.533L515.528,837.533L459.416,39.347L519.382,134.666L568.793,837.533L1022.533,837.533L1035.606,766.023L1040.265,1281.997L1023.915,1196.657L594.039,1196.657L656.518,2085.429L596.553,1990.11L540.774,1196.657Z" style="fill:rgb(92,0,255);"/>
    </g>
    <g transform="matrix(2.065047,2.153559,-0.537602,0.224909,101.269739,-681.872422)">
        <path d="M1017.325,1086.683C1016.938,1086.565 1016.553,1086.506 1016.171,1086.506L586.295,1086.506C575.209,1086.506 569.69,1135.822 573.966,1196.657L625.776,1933.648L611.006,1910.17L560.846,1196.657C556.57,1135.822 544.116,1086.506 533.031,1086.506L411.505,1086.506L411.505,947.685L523.272,947.685C534.357,947.685 539.877,898.368 535.6,837.533L490.159,191.128L504.929,214.606L548.72,837.533C552.997,898.368 565.45,947.685 576.536,947.685L1016.07,947.685L1017.325,1086.683Z" style="fill:white;"/>
    </g>
</svg>
