<?xml version="1.0" encoding="UTF-8" standalone="no"?>
<!DOCTYPE svg PUBLIC "-//W3C//DTD SVG 1.1//EN" "http://www.w3.org/Graphics/SVG/1.1/DTD/svg11.dtd">
<svg width="100%" height="100%" viewBox="0 0 2000 2000" version="1.1" xmlns="http://www.w3.org/2000/svg" xmlns:xlink="http://www.w3.org/1999/xlink" xml:space="preserve" xmlns:serif="http://www.serif.com/" style="fill-rule:evenodd;clip-rule:evenodd;stroke-linejoin:round;stroke-miterlimit:2;">
    <path d="M2000,500L2000,1500C2000,1775.958 1775.958,2000 1500,2000L500,2000C224.042,2000 0,1775.958 0,1500L0,500C0,224.042 224.042,0 500,0L1500,0C1775.958,0 2000,224.042 2000,500Z" style="fill:rgb(92,0,255);"/>
    <g transform="matrix(0.977349,0,0,0.977349,286.153374,4.338131)">
        <path d="M370.841,991.569L179.939,1174.626L123.646,1057.85L365.125,826.296L123.646,574.466L273.373,511.827L357.053,599.094L355.828,568.478C353.37,504.574 347.595,460.05 338.994,434.846C328.504,403.858 312.948,375.22 292.299,348.948L760.993,348.948C892.864,348.948 988.336,362.483 1047.27,390.492L1047.353,390.531C1105.754,417.821 1134.855,464.549 1134.855,530.591C1134.855,614.318 1098.72,683.509 1026.873,738.384L1026.806,738.436C939.373,806.051 808.633,839.188 634.933,839.188C620.628,839.188 607.94,842.553 597.074,849.402L1286.385,1568.259L1337.136,1577.619L1129.476,1675.398L1138.871,1633.206L552.834,1022.05L552.834,1088.473C552.834,1296.591 555.113,1425.02 559.599,1473.76C564.154,1523.265 568.767,1557.729 573.323,1577.166C578.08,1597.463 584.612,1615.529 592.854,1631.389C602.182,1649.584 617.91,1668.694 640.238,1688.527L323.06,1688.527C340.078,1651.538 350.593,1619.402 354.781,1592.182C359.606,1560.817 363.227,1527.643 365.64,1492.659L365.641,1492.642C370.426,1422.074 372.826,1327.284 372.826,1208.274C372.826,1132.567 372.164,1060.332 370.841,991.569ZM614.356,758.064C616.735,759.12 619.148,760.047 621.595,760.847C638.056,766.229 663.197,769.147 697.069,769.147C730.978,769.147 762.983,762.474 793.089,749.164C823.134,735.88 848.078,719.215 868.003,699.29C888.174,679.119 903,657.623 912.605,634.89C922.376,611.767 927.132,590.242 927.132,570.376C927.132,550.9 924.424,531.584 918.996,512.428C913.234,492.092 901.959,474.078 885.012,458.487L884.855,458.345C849.59,426.859 789.418,410.048 703.774,410.048C650.245,410.048 615.591,417.974 599.271,431.03L599.098,431.17C569.331,455.761 552.834,503.463 552.834,575.293C552.834,601.753 553.589,624.705 555.075,644.152L717.341,488.556L773.634,605.332L614.356,758.064Z" style="fill:white;"/>
    </g>
</svg>
